<?xml version="1.0" standalone="no"?>
<!DOCTYPE svg PUBLIC "-//W3C//DTD SVG 1.1//EN"
"http://www.w3.org/Graphics/SVG/1.1/DTD/svg11.dtd">
<svg width="100%" height="100%" version="1.1"
xmlns="http://www.w3.org/2000/svg"
xmlns:xlink="http://www.w3.org/1999/xlink">
<g fill-rule="evenodd"><path d="M 298,171 L 334,172 L 347,179 L 400,262 L 400,278 L 350,370 L 335,377 L 232,374 L 219,365 L 173,281 L 173,266 L 208,202 L 192,191 L 191,190 L 190,192 L 176,202 L 16,201 L 0,172 L 56,74 L 68,34 L 91,22 L 122,35 L 129,41 L 174,113 L 176,108 L 221,74 L 229,72 L 253,72 L 263,74 L 308,112 L 312,128 L 298,171 z " style="fill-opacity:0.5;fill:rgb(153,0,0);stroke:rgb(200,0,0);stroke-width:2"/></g>
</svg>
