<?xml version="1.0" standalone="no"?>
<!DOCTYPE svg PUBLIC "-//W3C//DTD SVG 1.1//EN"
"http://www.w3.org/Graphics/SVG/1.1/DTD/svg11.dtd">
<svg width="100%" height="100%" version="1.1"
xmlns="http://www.w3.org/2000/svg"
xmlns:xlink="http://www.w3.org/1999/xlink">
<g fill-rule="evenodd"><path d="M 0,215 L 0,122 L 7,116 L 15,113 L 34,113 L 42,116 L 70,137 L 74,143 L 78,157 L 78,164 L 66,201 L 56,208 L 24,212 L 49,214 L 56,219 L 66,231 L 67,229 L 95,219 L 101,219 L 134,223 L 143,234 L 144,237 L 165,203 L 165,203 L 141,135 L 146,121 L 197,87 L 203,86 L 224,87 L 229,89 L 265,112 L 270,119 L 277,143 L 277,150 L 258,197 L 275,225 L 275,210 L 282,205 L 276,186 L 277,178 L 318,109 L 324,104 L 343,98 L 357,104 L 398,173 L 400,181 L 397,198 L 385,209 L 382,209 L 385,213 L 384,297 L 371,310 L 306,311 L 301,310 L 281,301 L 274,290 L 275,264 L 250,304 L 240,310 L 183,310 L 173,304 L 147,263 L 151,295 L 139,311 L 71,313 L 59,302 L 57,304 L 49,310 L 7,312 L 0,308 L 0,215 z " style="fill-opacity:0.5;fill:rgb(153,0,0);stroke:rgb(200,0,0);stroke-width:2"/></g>
</svg>
