<?xml version="1.0" standalone="no"?>
<!DOCTYPE svg PUBLIC "-//W3C//DTD SVG 1.1//EN"
"http://www.w3.org/Graphics/SVG/1.1/DTD/svg11.dtd">
<svg width="100%" height="100%" version="1.1"
xmlns="http://www.w3.org/2000/svg"
xmlns:xlink="http://www.w3.org/1999/xlink">
<g fill-rule="evenodd"><path d="M 299,276 L 288,287 L 221,287 L 207,272 L 207,231 L 150,234 L 140,226 L 129,233 L 83,231 L 79,228 L 78,231 L 22,234 L 20,230 L 0,233 L 0,152 L 9,152 L 17,154 L 29,164 L 40,157 L 57,157 L 61,160 L 94,138 L 102,136 L 117,137 L 123,140 L 147,154 L 152,161 L 152,163 L 158,153 L 166,148 L 182,143 L 198,149 L 212,172 L 231,138 L 236,121 L 255,111 L 276,119 L 282,124 L 294,144 L 305,136 L 313,133 L 327,133 L 335,136 L 359,156 L 363,170 L 361,176 L 363,176 L 374,182 L 400,223 L 400,237 L 375,281 L 363,288 L 312,287 L 301,280 L 299,276 z " style="fill-opacity:0.5;fill:rgb(153,0,0);stroke:rgb(200,0,0);stroke-width:2"/></g>
</svg>
