<?xml version="1.0" standalone="no"?>
<!DOCTYPE svg PUBLIC "-//W3C//DTD SVG 1.1//EN"
"http://www.w3.org/Graphics/SVG/1.1/DTD/svg11.dtd">
<svg width="100%" height="100%" version="1.1"
xmlns="http://www.w3.org/2000/svg"
xmlns:xlink="http://www.w3.org/1999/xlink">
<g fill-rule="evenodd"><path d="M 207,231 L 207,209 L 217,200 L 209,172 L 210,158 L 273,52 L 283,43 L 312,35 L 334,43 L 398,151 L 400,163 L 396,190 L 378,207 L 373,207 L 378,212 L 376,342 L 356,362 L 254,364 L 248,362 L 216,349 L 205,332 L 206,292 L 168,354 L 153,362 L 64,362 L 48,354 L 0,276 L 0,256 L 48,178 L 62,170 L 158,168 L 173,177 L 207,231 z " style="fill-opacity:0.5;fill:rgb(153,0,0);stroke:rgb(200,0,0);stroke-width:2"/></g>
</svg>
