<?xml version="1.0" standalone="no"?>
<!DOCTYPE svg PUBLIC "-//W3C//DTD SVG 1.1//EN"
"http://www.w3.org/Graphics/SVG/1.1/DTD/svg11.dtd">
<svg width="100%" height="100%" version="1.1"
xmlns="http://www.w3.org/2000/svg"
xmlns:xlink="http://www.w3.org/1999/xlink">
<g fill-rule="evenodd"><path d="M 125,203 L 125,203 L 97,124 L 102,107 L 162,68 L 169,67 L 194,68 L 200,70 L 242,97 L 247,105 L 256,133 L 256,142 L 233,197 L 254,229 L 254,212 L 261,205 L 255,184 L 256,174 L 304,93 L 311,87 L 333,81 L 350,87 L 398,169 L 400,178 L 397,198 L 383,211 L 379,211 L 383,215 L 382,313 L 366,329 L 290,330 L 284,329 L 260,318 L 253,306 L 253,276 L 224,322 L 213,329 L 145,329 L 134,322 L 103,274 L 108,312 L 94,330 L 15,332 L 0,318 L 0,248 L 10,234 L 43,223 L 49,223 L 88,228 L 99,240 L 100,243 L 125,203 z " style="fill-opacity:0.5;fill:rgb(153,0,0);stroke:rgb(200,0,0);stroke-width:2"/></g>
</svg>
