<?xml version="1.0" standalone="no"?>
<!DOCTYPE svg PUBLIC "-//W3C//DTD SVG 1.1//EN"
"http://www.w3.org/Graphics/SVG/1.1/DTD/svg11.dtd">
<svg width="100%" height="100%" version="1.1"
xmlns="http://www.w3.org/2000/svg"
xmlns:xlink="http://www.w3.org/1999/xlink">
<g fill-rule="evenodd"><path d="M 103,267 L 108,305 L 94,323 L 15,325 L 0,311 L 0,241 L 10,227 L 43,215 L 49,215 L 88,221 L 99,233 L 100,236 L 134,182 L 144,176 L 217,175 L 228,181 L 254,222 L 254,205 L 261,198 L 255,177 L 256,167 L 304,86 L 311,80 L 333,74 L 350,80 L 398,162 L 400,171 L 397,191 L 383,204 L 379,204 L 383,208 L 382,306 L 366,322 L 290,323 L 284,322 L 260,311 L 253,299 L 253,269 L 224,315 L 213,322 L 145,322 L 134,315 L 103,267 z " style="fill-opacity:0.5;fill:rgb(153,0,0);stroke:rgb(200,0,0);stroke-width:2"/></g>
</svg>
