<?xml version="1.0" standalone="no"?>
<!DOCTYPE svg PUBLIC "-//W3C//DTD SVG 1.1//EN"
"http://www.w3.org/Graphics/SVG/1.1/DTD/svg11.dtd">
<svg width="100%" height="100%" version="1.1"
xmlns="http://www.w3.org/2000/svg"
xmlns:xlink="http://www.w3.org/1999/xlink">
<g fill-rule="evenodd"><path d="M 22,263 L 0,267 L 0,177 L 10,177 L 19,180 L 32,191 L 44,183 L 63,183 L 67,186 L 104,162 L 112,160 L 129,161 L 135,163 L 161,180 L 167,187 L 167,189 L 174,178 L 182,172 L 201,167 L 218,174 L 233,199 L 255,162 L 260,143 L 281,132 L 304,141 L 310,146 L 324,168 L 336,159 L 344,157 L 360,157 L 369,160 L 395,181 L 400,197 L 388,231 L 375,242 L 334,245 L 329,242 L 325,245 L 248,244 L 246,251 L 232,263 L 165,267 L 154,259 L 142,266 L 91,264 L 88,261 L 86,264 L 25,267 L 22,263 z " style="fill-opacity:0.5;fill:rgb(153,0,0);stroke:rgb(200,0,0);stroke-width:2"/></g>
</svg>
